<svg width="3469" height="3469" viewBox="0 0 3469 3469" fill="none" xmlns="http://www.w3.org/2000/svg">
<rect width="3469" height="3469" rx="260" fill="#002646"/>
<path d="M1282.43 2832.41C1282.43 2865.64 1265.92 2896.7 1238.38 2915.29L1232.46 2919.29C1198.65 2942.11 1154.37 2942.11 1120.56 2919.29L1114.64 2915.29C1087.1 2896.7 1070.59 2865.64 1070.59 2832.41L1070.59 1078.29C1070.59 1044.44 1087.71 1012.89 1116.09 994.448L1122.01 990.6C1155.15 969.059 1197.87 969.059 1231.01 990.6L1236.93 994.448C1265.31 1012.89 1282.43 1044.44 1282.43 1078.29L1282.43 2832.41Z" fill="#00BF80"/>
<path d="M1653.15 2610.96C1653.15 2642.85 1637.94 2672.82 1612.2 2691.66L1600.36 2700.32C1534.3 2748.66 1441.31 2701.48 1441.31 2619.62L1441.31 1291.93C1441.31 1211.21 1532 1163.75 1598.32 1209.77L1610.16 1217.99C1637.08 1236.67 1653.15 1267.37 1653.15 1300.14L1653.15 2610.96Z" fill="#00BF80"/>
<path d="M2023.86 2395.49C2023.86 2428.72 2007.35 2459.78 1979.81 2478.38L1967.97 2486.37C1901.55 2531.2 1812.02 2483.61 1812.02 2403.48V1510.02C1812.02 1429.11 1903.09 1381.7 1969.37 1428.09L1981.21 1436.38C2007.94 1455.09 2023.86 1485.67 2023.86 1518.3L2023.86 2395.49Z" fill="#00BF80"/>
<circle cx="1546.96" cy="1320.96" r="735.958" stroke="white" stroke-width="150"/>
<rect x="1908.44" y="1914.65" width="189.98" height="1130.91" transform="rotate(-36.3596 1908.44 1914.65)" fill="white"/>
<circle cx="1546.96" cy="1320.96" r="710.958" stroke="white" stroke-width="200"/>
<rect x="1908.44" y="1914.65" width="189.98" height="1130.91" transform="rotate(-36.3596 1908.44 1914.65)" fill="white"/>
</svg>
