<svg width="3469" height="3469" viewBox="0 0 3469 3469" fill="none" xmlns="http://www.w3.org/2000/svg">
<rect width="3469" height="3469" rx="260" fill="#002646"/>
<g filter="url(#filter0_d)">
<path d="M2316.49 2167.3C2316.49 2274.22 2403.17 2360.91 2510.1 2360.91C2617.03 2360.91 2703.71 2274.22 2703.71 2167.3C2703.71 2060.37 2617.03 1973.69 2510.1 1973.69C2403.17 1973.69 2316.49 2060.37 2316.49 2167.3Z" stroke="white" stroke-width="100" stroke-linejoin="round"/>
<path d="M1790.29 2167.3C1790.29 2274.22 1876.97 2360.91 1983.9 2360.91C2090.83 2360.91 2177.51 2274.22 2177.51 2167.3C2177.51 2060.37 2090.83 1973.69 1983.9 1973.69C1876.97 1973.69 1790.29 2060.37 1790.29 2167.3Z" stroke="white" stroke-width="100" stroke-linejoin="round"/>
<path d="M737.902 2167.3C737.902 2274.22 824.584 2360.91 931.512 2360.91C1038.44 2360.91 1125.12 2274.22 1125.12 2167.3C1125.12 2060.37 1038.44 1973.69 931.512 1973.69C824.584 1973.69 737.902 2060.37 737.902 2167.3Z" stroke="white" stroke-width="100" stroke-linejoin="round"/>
<path d="M1672.09 2060.11H1312.82C1285.21 2060.11 1262.82 2037.72 1262.82 2010.11V1350.05C1262.82 1322.43 1240.44 1300.05 1212.82 1300.05H871.828C854.424 1300.05 838.273 1309.1 829.185 1323.94L558.839 1765.5C554.028 1773.36 551.482 1782.4 551.482 1791.61V2060.11M2693.97 1056.44H1488.22C1460.61 1056.44 1438.22 1078.82 1438.22 1106.44V1727.52C1438.22 1755.14 1460.61 1777.52 1488.22 1777.52H2693.97C2721.58 1777.52 2743.97 1755.14 2743.97 1727.52V1106.44C2743.97 1078.82 2721.58 1056.44 2693.97 1056.44Z" stroke="white" stroke-width="100" stroke-linejoin="round"/>
</g>
<path d="M3149.92 1179.75C3163.21 1179.78 3175.62 1186.41 3183.03 1197.45L3187.71 1204.42C3196.8 1217.96 3196.76 1235.67 3187.6 1249.17L3182.89 1256.12C3175.43 1267.12 3162.99 1273.69 3149.7 1273.66L2367.42 1271.8C2353.88 1271.77 2341.28 1264.89 2333.92 1253.52L2329.42 1246.56C2320.84 1233.28 2320.88 1216.19 2329.52 1202.96L2334.06 1196.01C2341.47 1184.68 2354.1 1177.86 2367.64 1177.89L3149.92 1179.75Z" fill="#00BF80"/>
<path d="M3060.69 1343.89C3093.35 1343.97 3112.15 1381.05 3092.92 1407.45L3082.8 1421.33C3075.25 1431.69 3063.2 1437.81 3050.38 1437.78L2466.89 1436.39C2453.95 1436.36 2441.83 1430.08 2434.35 1419.52L2424.47 1405.59C2405.67 1379.07 2424.69 1342.38 2457.2 1342.46L3060.69 1343.89Z" fill="#00BF80"/>
<path d="M2967.52 1508.01C2998.77 1508.09 3017.87 1542.37 3001.48 1568.99L2992.93 1582.88C2985.63 1594.73 2972.7 1601.94 2958.78 1601.91L2558.93 1600.96C2545.52 1600.92 2533.01 1594.17 2525.63 1582.97L2516.45 1569.03C2498.89 1542.4 2518.05 1506.95 2549.94 1507.02L2967.52 1508.01Z" fill="#00BF80"/>
<defs>
<filter id="filter0_d" x="497.481" y="1006.44" width="2300.49" height="1414.47" filterUnits="userSpaceOnUse" color-interpolation-filters="sRGB">
<feFlood flood-opacity="0" result="BackgroundImageFix"/>
<feColorMatrix in="SourceAlpha" type="matrix" values="0 0 0 0 0 0 0 0 0 0 0 0 0 0 0 0 0 0 127 0"/>
<feOffset dy="6"/>
<feGaussianBlur stdDeviation="2"/>
<feColorMatrix type="matrix" values="0 0 0 0 0 0 0 0 0 0 0 0 0 0 0 0 0 0 0.25 0"/>
<feBlend mode="normal" in2="BackgroundImageFix" result="effect1_dropShadow"/>
<feBlend mode="normal" in="SourceGraphic" in2="effect1_dropShadow" result="shape"/>
</filter>
</defs>
</svg>
