<svg width="3469" height="3469" viewBox="0 0 3469 3469" fill="none" xmlns="http://www.w3.org/2000/svg">
<rect width="3469" height="3469" rx="260" fill="#002646"/>
<rect x="1287.06" y="656" width="904.756" height="1570.99" rx="450" stroke="white" stroke-width="100"/>
<path d="M2393.07 1632.36V1756.64C2393.07 2115.62 2102.05 2406.64 1743.07 2406.64H1734.03M1075 1632.36V1756.64C1075 2115.62 1366.02 2406.64 1725 2406.64H1734.03M1734.03 2406.64V2864" stroke="white" stroke-width="100"/>
<path d="M1694.78 1087.88C1694.78 1074.69 1701.33 1062.36 1712.26 1054.99C1725.67 1045.93 1743.24 1045.93 1756.66 1054.99C1767.59 1062.36 1774.14 1074.69 1774.14 1087.88V1742.67C1774.14 1756.1 1767.35 1768.62 1756.08 1775.94C1742.93 1784.49 1725.98 1784.49 1712.83 1775.94C1701.57 1768.62 1694.78 1756.1 1694.78 1742.67V1087.88Z" fill="#00BF80"/>
<path d="M1833.66 1171.35C1833.66 1138.95 1870.4 1120.21 1896.64 1139.23C1906.93 1146.69 1913.03 1158.64 1913.03 1171.35V1658.44C1913.03 1671.27 1906.82 1683.31 1896.37 1690.76C1870.1 1709.47 1833.66 1690.69 1833.66 1658.44V1171.35Z" fill="#00BF80"/>
<path d="M1555.89 1170.79C1555.89 1158.13 1561.92 1146.24 1572.14 1138.77C1598.35 1119.58 1635.25 1138.3 1635.25 1170.79V1659.6C1635.25 1691.63 1599.26 1710.46 1572.95 1692.2C1562.26 1684.78 1555.89 1672.6 1555.89 1659.6V1170.79Z" fill="#00BF80"/>
<path d="M1417 1251.57C1417 1238.38 1423.55 1226.05 1434.48 1218.68C1460.84 1200.89 1496.37 1219.77 1496.37 1251.57V1577.87C1496.37 1609.97 1460.23 1628.79 1433.93 1610.38C1423.32 1602.95 1417 1590.82 1417 1577.87V1251.57Z" fill="#00BF80"/>
<path d="M1972.56 1248.74C1972.56 1217.73 2006.52 1198.7 2032.97 1214.9C2044.74 1222.11 2051.92 1234.93 2051.92 1248.74V1580.2C2051.92 1593.5 2045.25 1605.93 2034.16 1613.28C2007.78 1630.75 1972.56 1611.84 1972.56 1580.2V1248.74Z" fill="#00BF80"/>
</svg>
