<svg xmlns="http://www.w3.org/2000/svg" viewBox="236.3 185.1 315 241" role="img" aria-label="Mindset">
  <title>Mindset</title>
  <!-- Bracket M mark for dark surfaces: emerald braces + white M.
       Emerald #1EC795 is the on-dark display tone (8.3:1 on ink).
       Source: Mindset_Bracket_M_Two_Color_Reverse.svg (6-3-26 delivery), viewBox cropped. -->
  <g fill="#1EC795">
    <path d="M236.9,295.3c6.4-.2,11.6-1.9,15.6-5.2,4-3.3,6.7-7.8,8-13.5,1.3-5.7,2-15.5,2.1-29.4,0-13.9.3-23,.7-27.4.7-7,2.1-12.6,4.2-16.8,2-4.2,4.5-7.6,7.5-10.2,3-2.5,6.8-4.5,11.5-5.8,3.2-.8,8.3-1.2,15.5-1.2h7v19.6h-3.9c-8.6,0-14.4,1.6-17.2,4.7-2.8,3.1-4.2,10.1-4.2,20.9,0,21.8-.5,35.5-1.4,41.2-1.5,8.9-4.1,15.7-7.7,20.6-3.6,4.8-9.3,9.1-17,12.8,9.1,3.8,15.8,9.7,19.9,17.5,4.1,7.8,6.2,20.7,6.2,38.6s.2,25.8.5,28.9c.7,5.6,2.3,9.6,5,11.8,2.7,2.2,8,3.4,15.9,3.4h3.9v19.6h-7c-8.1,0-14-.7-17.7-2-5.3-1.9-9.7-5-13.2-9.3-3.5-4.3-5.8-9.7-6.8-16.3-1-6.6-1.6-17.3-1.7-32.3,0-15-.8-25.3-2.1-31-1.3-5.7-4-10.3-8-13.6-4-3.3-9.2-5.1-15.6-5.2v-20.3h0Z"/>
    <path d="M550.7,295.3v20.3c-6.4.2-11.6,1.9-15.6,5.2-4,3.3-6.7,7.8-8,13.5-1.3,5.7-2,15.5-2.1,29.3,0,13.9-.3,23-.7,27.4-.7,7.1-2.1,12.7-4.2,16.9-2,4.2-4.5,7.6-7.5,10.1-3,2.5-6.8,4.5-11.5,5.8-3.2.9-8.3,1.4-15.5,1.4h-7v-19.6h3.9c8.6,0,14.4-1.6,17.2-4.7,2.8-3.1,4.2-10.1,4.2-21,0-20.8.4-33.9,1.1-39.5,1.3-9.2,4-16.6,8-22.1,4-5.5,9.6-9.8,16.9-12.9-9.6-4.6-16.3-10.6-20.2-18.1-3.9-7.5-5.9-20.2-5.9-38.1s-.2-25.9-.6-29c-.6-5.6-2.2-9.4-4.9-11.6-2.7-2.2-8-3.3-15.9-3.3h-3.9v-19.6h7c8.1,0,14,.7,17.7,2,5.3,1.8,9.7,4.9,13.2,9.2,3.5,4.3,5.8,9.8,6.8,16.3,1,6.6,1.6,17.3,1.7,32.3,0,15,.8,25.3,2.1,31,1.3,5.7,4,10.2,8,13.5,4,3.3,9.2,5.1,15.6,5.2h0Z"/>
  </g>
  <polygon fill="#FFFFFF" points="441.2 386.8 441 300.4 405.5 367.2 381.4 367.2 345.4 301.8 345.8 386.8 313.3 386.8 313.3 227.5 343 227.5 393.8 323.9 444.5 227.5 473.9 227.5 473.9 386.8 441.2 386.8 441.2 386.8"/>
</svg>
